<svg width="119" height="120" viewBox="0 0 119 120" fill="none" xmlns="http://www.w3.org/2000/svg">
<circle cx="59.5" cy="59.6562" r="56" stroke="white" stroke-width="7"/>
<mask id="path-2-inside-1_3140_28681" fill="white">
<path d="M93.8608 54.9255C95.6245 54.9255 97.0675 56.3576 96.9265 58.1157C96.4261 64.3576 94.4625 70.4103 91.1762 75.7756C87.3324 82.0509 81.8287 87.1416 75.2732 90.4851C68.7176 93.8287 61.3654 95.295 54.0288 94.7221C47.7561 94.2323 41.7036 92.2681 36.357 89.0083C34.8511 88.0902 34.5391 86.0813 35.5746 84.6536C36.6101 83.2259 38.6003 82.9227 40.12 83.8177C44.5024 86.3989 49.4276 87.9565 54.526 88.3547C60.6888 88.8359 66.8646 87.6042 72.3713 84.7956C77.8779 81.987 82.501 77.7109 85.7298 72.4396C88.4009 68.0787 90.0318 63.1772 90.5154 58.1142C90.6831 56.3585 92.0971 54.9255 93.8608 54.9255Z"/>
</mask>
<path d="M93.8608 54.9255C95.6245 54.9255 97.0675 56.3576 96.9265 58.1157C96.4261 64.3576 94.4625 70.4103 91.1762 75.7756C87.3324 82.0509 81.8287 87.1416 75.2732 90.4851C68.7176 93.8287 61.3654 95.295 54.0288 94.7221C47.7561 94.2323 41.7036 92.2681 36.357 89.0083C34.8511 88.0902 34.5391 86.0813 35.5746 84.6536C36.6101 83.2259 38.6003 82.9227 40.12 83.8177C44.5024 86.3989 49.4276 87.9565 54.526 88.3547C60.6888 88.8359 66.8646 87.6042 72.3713 84.7956C77.8779 81.987 82.501 77.7109 85.7298 72.4396C88.4009 68.0787 90.0318 63.1772 90.5154 58.1142C90.6831 56.3585 92.0971 54.9255 93.8608 54.9255Z" stroke="white" stroke-width="18" mask="url(#path-2-inside-1_3140_28681)"/>
</svg>
